<?xml version="1.0" encoding="utf-8"?>
<!-- Generator: Adobe Illustrator 27.5.0, SVG Export Plug-In . SVG Version: 6.00 Build 0)  -->
<svg version="1.1" xmlns="http://www.w3.org/2000/svg" xmlns:xlink="http://www.w3.org/1999/xlink" x="0px" y="0px"
	 viewBox="0 0 500 500" style="enable-background:new 0 0 500 500;" xml:space="preserve">
<g id="BACKGROUND">
	<radialGradient id="SVGID_1_" cx="250" cy="250" r="276.945" gradientUnits="userSpaceOnUse">
		<stop  offset="0" style="stop-color:#0E3256"/>
		<stop  offset="1" style="stop-color:#031D30"/>
	</radialGradient>
	<rect style="fill:url(#SVGID_1_);" width="500" height="500"/>
</g>
<g id="OBJECTS">
	<g>
		<g>
			<g>
				
					<linearGradient id="SVGID_00000016055732849703382010000016028968987967142301_" gradientUnits="userSpaceOnUse" x1="229.7342" y1="118.8398" x2="193.9522" y2="240.9199">
					<stop  offset="0.0044" style="stop-color:#FFB83D"/>
					<stop  offset="0.4779" style="stop-color:#FF433D"/>
					<stop  offset="1" style="stop-color:#042640"/>
				</linearGradient>
				<polygon style="fill:url(#SVGID_00000016055732849703382010000016028968987967142301_);" points="208.531,224.733 
					179.65,213.603 249.998,125.818 				"/>
				
					<linearGradient id="SVGID_00000021084410624058503690000016599723601101280663_" gradientUnits="userSpaceOnUse" x1="202.4736" y1="267.2621" x2="230.207" y2="245.4928">
					<stop  offset="0.0044" style="stop-color:#FFB83D"/>
					<stop  offset="0.4779" style="stop-color:#FF433D"/>
					<stop  offset="1" style="stop-color:#042640"/>
				</linearGradient>
				<polygon style="fill:url(#SVGID_00000021084410624058503690000016599723601101280663_);" points="208.531,224.733 
					250.002,301.529 179.65,213.603 				"/>
				
					<linearGradient id="SVGID_00000160158384227141186730000003206669858975541417_" gradientUnits="userSpaceOnUse" x1="260.6828" y1="255.0061" x2="190.9864" y2="273.0311">
					<stop  offset="0.0044" style="stop-color:#FFB83D"/>
					<stop  offset="0.4779" style="stop-color:#FF433D"/>
					<stop  offset="1" style="stop-color:#042640"/>
				</linearGradient>
				<polygon style="fill:url(#SVGID_00000160158384227141186730000003206669858975541417_);" points="208.531,224.733 
					250.437,227.61 250.002,301.529 				"/>
				
					<linearGradient id="SVGID_00000140700305674340178200000000525760258350620814_" gradientUnits="userSpaceOnUse" x1="230.1207" y1="215.9832" x2="229.216" y2="230.4594">
					<stop  offset="0.0044" style="stop-color:#FFB83D"/>
					<stop  offset="0.4779" style="stop-color:#FF433D"/>
					<stop  offset="1" style="stop-color:#042640"/>
				</linearGradient>
				<polygon style="fill:url(#SVGID_00000140700305674340178200000000525760258350620814_);" points="208.531,224.733 
					250.437,227.61 216.044,221.162 				"/>
				
					<linearGradient id="SVGID_00000090993649699140305540000015898833479750980254_" gradientUnits="userSpaceOnUse" x1="247.7984" y1="201.8798" x2="209.6665" y2="147.1444">
					<stop  offset="0.0044" style="stop-color:#FFB83D"/>
					<stop  offset="0.4779" style="stop-color:#FF433D"/>
					<stop  offset="1" style="stop-color:#042640"/>
				</linearGradient>
				<polygon style="fill:url(#SVGID_00000090993649699140305540000015898833479750980254_);" points="208.531,224.733 
					249.998,125.818 216.044,221.162 				"/>
			</g>
			<g>
				
					<linearGradient id="SVGID_00000084526698143931586830000007752160607779586215_" gradientUnits="userSpaceOnUse" x1="242.6197" y1="187.4968" x2="279.473" y2="156.9612">
					<stop  offset="0" style="stop-color:#A6F1FF"/>
					<stop  offset="0.3551" style="stop-color:#64CDEB"/>
					<stop  offset="1" style="stop-color:#103E78"/>
				</linearGradient>
				<polygon style="fill:url(#SVGID_00000084526698143931586830000007752160607779586215_);" points="291.469,202.587 
					249.998,125.818 249.563,199.704 				"/>
				
					<linearGradient id="SVGID_00000151541143597976833840000012301608176498941107_" gradientUnits="userSpaceOnUse" x1="311.9398" y1="162.7617" x2="267.7472" y2="174.2348">
					<stop  offset="0" style="stop-color:#A6F1FF"/>
					<stop  offset="0.3551" style="stop-color:#64CDEB"/>
					<stop  offset="1" style="stop-color:#103E78"/>
				</linearGradient>
				<polygon style="fill:url(#SVGID_00000151541143597976833840000012301608176498941107_);" points="291.469,202.587 
					320.35,213.603 249.998,125.818 				"/>
				
					<linearGradient id="SVGID_00000119084948247498428250000015640483970436948125_" gradientUnits="userSpaceOnUse" x1="274.9816" y1="287.2709" x2="305.0362" y2="199.698">
					<stop  offset="0" style="stop-color:#A6F1FF"/>
					<stop  offset="0.3551" style="stop-color:#64CDEB"/>
					<stop  offset="1" style="stop-color:#103E78"/>
				</linearGradient>
				<polygon style="fill:url(#SVGID_00000119084948247498428250000015640483970436948125_);" points="320.35,213.603 
					291.469,202.587 250.002,301.529 				"/>
				
					<linearGradient id="SVGID_00000029763405144016758610000003460109184149047426_" gradientUnits="userSpaceOnUse" x1="270.435" y1="183.2655" x2="269.5303" y2="197.7417" gradientTransform="matrix(-1 0 0 -1 540.3143 394.629)">
					<stop  offset="0" style="stop-color:#A6F1FF"/>
					<stop  offset="0.3551" style="stop-color:#64CDEB"/>
					<stop  offset="1" style="stop-color:#103E78"/>
				</linearGradient>
				<polygon style="fill:url(#SVGID_00000029763405144016758610000003460109184149047426_);" points="291.469,202.613 
					249.563,199.737 283.955,206.185 				"/>
				
					<linearGradient id="SVGID_00000011729277178153729250000007860383378472683438_" gradientUnits="userSpaceOnUse" x1="260.1874" y1="245.2387" x2="273.162" y2="253.6427">
					<stop  offset="0" style="stop-color:#A6F1FF"/>
					<stop  offset="0.3551" style="stop-color:#64CDEB"/>
					<stop  offset="1" style="stop-color:#103E78"/>
				</linearGradient>
				<polygon style="fill:url(#SVGID_00000011729277178153729250000007860383378472683438_);" points="291.469,202.613 
					250.002,301.529 283.955,206.185 				"/>
			</g>
			
				<linearGradient id="SVGID_00000029022389582713400990000007860735330358283684_" gradientUnits="userSpaceOnUse" x1="250" y1="162.4444" x2="250" y2="276.2249">
				<stop  offset="0" style="stop-color:#FFFFFF;stop-opacity:0"/>
				<stop  offset="1" style="stop-color:#FFFFFF"/>
			</linearGradient>
			<polygon style="opacity:0.25;fill:url(#SVGID_00000029022389582713400990000007860735330358283684_);" points="257.596,221.699 
				257.37,265.73 274.699,211.702 242.404,205.648 242.63,161.617 225.301,215.644 			"/>
			
				<linearGradient id="SVGID_00000047742369027199693420000012168889876682322332_" gradientUnits="userSpaceOnUse" x1="250.5941" y1="162.4444" x2="250.5941" y2="276.2249">
				<stop  offset="0" style="stop-color:#FFFFFF;stop-opacity:0"/>
				<stop  offset="1" style="stop-color:#FFFFFF"/>
			</linearGradient>
			<polygon style="opacity:0.25;fill:url(#SVGID_00000047742369027199693420000012168889876682322332_);" points="262.349,218.135 
				257.37,265.73 268.758,215.267 238.597,208.313 242.63,161.617 232.43,212.08 			"/>
		</g>
	</g>
</g>
<g id="TEXTS">
	<g>
		
			<text transform="matrix(1 0 0 1 183.8677 352.4668)" style="fill:#FFFFFF; font-family:'Antonio-SemiBold'; font-size:47.8142px; letter-spacing:1;">ENERGY</text>
	</g>
	<g>
		<g>
			<path style="fill:#3D8BB6;" d="M194.827,364.699l2.566-4.835h1.207l-3.212,5.903v3.74h-1.122v-3.688l-3.219-5.956h1.227
				L194.827,364.699z"/>
			<path style="fill:#3D8BB6;" d="M206.663,365.88c0,0.594-0.077,1.124-0.231,1.59c-0.154,0.466-0.376,0.859-0.667,1.181
				c-0.29,0.321-0.641,0.566-1.052,0.735s-0.876,0.254-1.395,0.254c-0.484,0-0.927-0.085-1.329-0.254s-0.75-0.414-1.042-0.735
				s-0.519-0.715-0.679-1.181s-0.241-0.996-0.241-1.59c0-0.791,0.134-1.465,0.402-2.021s0.652-0.98,1.151-1.273
				c0.499-0.292,1.094-0.438,1.784-0.438c0.66,0,1.237,0.147,1.731,0.442c0.495,0.294,0.879,0.72,1.154,1.276
				C206.525,364.421,206.663,365.093,206.663,365.88z M201.162,365.88c0,0.581,0.077,1.084,0.231,1.511s0.392,0.756,0.712,0.989
				s0.734,0.35,1.24,0.35c0.501,0,0.914-0.116,1.237-0.35s0.562-0.563,0.715-0.989s0.231-0.93,0.231-1.511
				c0-0.576-0.077-1.074-0.231-1.494s-0.391-0.744-0.712-0.973c-0.321-0.229-0.736-0.343-1.247-0.343
				c-0.752,0-1.303,0.248-1.652,0.745S201.162,365.001,201.162,365.88z"/>
			<path style="fill:#3D8BB6;" d="M215.2,362.278v7.229h-0.897l-0.158-1.016h-0.06c-0.149,0.251-0.343,0.462-0.58,0.633
				c-0.238,0.172-0.505,0.301-0.802,0.386c-0.297,0.086-0.612,0.129-0.946,0.129c-0.572,0-1.051-0.092-1.438-0.277
				c-0.387-0.185-0.678-0.47-0.874-0.857c-0.196-0.387-0.293-0.884-0.293-1.49v-4.736h1.108v4.657c0,0.603,0.136,1.052,0.409,1.349
				c0.272,0.297,0.688,0.445,1.247,0.445c0.537,0,0.964-0.102,1.283-0.304s0.549-0.5,0.689-0.894s0.211-0.876,0.211-1.447v-3.807
				H215.2z"/>
			<path style="fill:#3D8BB6;" d="M221.476,362.146c0.145,0,0.297,0.008,0.455,0.023c0.159,0.016,0.299,0.036,0.422,0.063
				l-0.139,1.016c-0.119-0.03-0.25-0.055-0.396-0.072s-0.282-0.026-0.409-0.026c-0.29,0-0.564,0.059-0.821,0.175
				c-0.257,0.116-0.482,0.283-0.676,0.501c-0.194,0.218-0.345,0.479-0.455,0.785c-0.11,0.306-0.165,0.646-0.165,1.019v3.879h-1.102
				v-7.229h0.91l0.119,1.333h0.046c0.149-0.269,0.33-0.514,0.541-0.735c0.211-0.223,0.456-0.399,0.735-0.531
				S221.133,362.146,221.476,362.146z"/>
			<path style="fill:#3D8BB6;" d="M233.249,367.529c0,0.462-0.116,0.85-0.347,1.164c-0.23,0.314-0.561,0.551-0.989,0.709
				s-0.94,0.237-1.534,0.237c-0.505,0-0.943-0.039-1.313-0.118c-0.369-0.08-0.692-0.191-0.97-0.337v-1.009
				c0.295,0.145,0.646,0.276,1.056,0.396c0.409,0.118,0.827,0.178,1.253,0.178c0.625,0,1.078-0.101,1.359-0.303
				s0.422-0.478,0.422-0.825c0-0.197-0.056-0.372-0.168-0.524c-0.112-0.151-0.3-0.299-0.564-0.441
				c-0.264-0.143-0.629-0.301-1.095-0.472c-0.462-0.176-0.861-0.351-1.197-0.524s-0.596-0.386-0.778-0.637s-0.274-0.576-0.274-0.977
				c0-0.61,0.248-1.08,0.742-1.408c0.495-0.327,1.145-0.491,1.949-0.491c0.435,0,0.843,0.043,1.224,0.129s0.735,0.201,1.065,0.347
				l-0.369,0.877c-0.299-0.128-0.618-0.235-0.957-0.323c-0.338-0.088-0.684-0.132-1.036-0.132c-0.505,0-0.894,0.083-1.164,0.25
				c-0.271,0.168-0.406,0.396-0.406,0.687c0,0.225,0.063,0.409,0.188,0.554c0.125,0.146,0.327,0.281,0.604,0.409
				c0.277,0.128,0.642,0.277,1.095,0.448c0.453,0.168,0.844,0.34,1.174,0.519c0.33,0.178,0.584,0.394,0.762,0.646
				C233.159,366.809,233.249,367.133,233.249,367.529z"/>
			<path style="fill:#3D8BB6;" d="M236.787,369.508h-1.102v-10.264h1.102V369.508z"/>
			<path style="fill:#3D8BB6;" d="M246.004,365.88c0,0.594-0.077,1.124-0.231,1.59c-0.154,0.466-0.376,0.859-0.667,1.181
				c-0.29,0.321-0.641,0.566-1.052,0.735s-0.876,0.254-1.395,0.254c-0.484,0-0.927-0.085-1.329-0.254s-0.75-0.414-1.042-0.735
				s-0.519-0.715-0.679-1.181s-0.241-0.996-0.241-1.59c0-0.791,0.134-1.465,0.402-2.021s0.652-0.98,1.151-1.273
				c0.499-0.292,1.094-0.438,1.784-0.438c0.66,0,1.237,0.147,1.731,0.442c0.495,0.294,0.879,0.72,1.154,1.276
				C245.866,364.421,246.004,365.093,246.004,365.88z M240.502,365.88c0,0.581,0.077,1.084,0.231,1.511s0.392,0.756,0.712,0.989
				s0.734,0.35,1.24,0.35c0.501,0,0.914-0.116,1.237-0.35s0.562-0.563,0.715-0.989s0.231-0.93,0.231-1.511
				c0-0.576-0.077-1.074-0.231-1.494s-0.391-0.744-0.712-0.973c-0.321-0.229-0.736-0.343-1.247-0.343
				c-0.752,0-1.303,0.248-1.652,0.745S240.502,365.001,240.502,365.88z"/>
			<path style="fill:#3D8BB6;" d="M250.591,372.753c-0.95,0-1.682-0.177-2.197-0.531c-0.514-0.354-0.771-0.85-0.771-1.487
				c0-0.453,0.144-0.84,0.432-1.16c0.288-0.321,0.687-0.535,1.197-0.641c-0.189-0.088-0.351-0.22-0.485-0.396
				c-0.134-0.176-0.201-0.378-0.201-0.606c0-0.264,0.074-0.496,0.221-0.696s0.373-0.393,0.676-0.577
				c-0.378-0.153-0.685-0.414-0.92-0.781s-0.353-0.795-0.353-1.283c0-0.519,0.107-0.962,0.323-1.329
				c0.216-0.367,0.528-0.647,0.937-0.841c0.409-0.193,0.903-0.29,1.484-0.29c0.128,0,0.257,0.005,0.386,0.017
				c0.13,0.011,0.254,0.026,0.373,0.046c0.118,0.02,0.222,0.043,0.31,0.069h2.48v0.706l-1.333,0.164
				c0.133,0.172,0.242,0.379,0.33,0.62c0.088,0.242,0.132,0.511,0.132,0.805c0,0.722-0.244,1.294-0.731,1.719
				c-0.488,0.424-1.159,0.637-2.012,0.637c-0.203,0-0.41-0.018-0.621-0.053c-0.215,0.118-0.379,0.25-0.491,0.396
				c-0.112,0.145-0.168,0.313-0.168,0.501c0,0.141,0.043,0.253,0.129,0.337c0.085,0.083,0.21,0.144,0.373,0.181
				c0.163,0.038,0.358,0.057,0.587,0.057h1.273c0.787,0,1.391,0.165,1.811,0.494c0.42,0.33,0.63,0.812,0.63,1.444
				c0,0.801-0.325,1.414-0.976,1.841C252.763,372.54,251.822,372.753,250.591,372.753z M250.624,371.896
				c0.598,0,1.094-0.061,1.488-0.182s0.688-0.294,0.884-0.521c0.195-0.227,0.293-0.496,0.293-0.809c0-0.29-0.065-0.509-0.197-0.656
				s-0.326-0.246-0.581-0.297c-0.255-0.05-0.567-0.075-0.937-0.075h-1.253c-0.326,0-0.609,0.05-0.851,0.151
				s-0.428,0.251-0.557,0.448c-0.13,0.198-0.195,0.444-0.195,0.739c0,0.391,0.165,0.689,0.495,0.894
				C249.542,371.793,250.012,371.896,250.624,371.896z M250.907,366.117c0.523,0,0.917-0.132,1.181-0.396s0.396-0.648,0.396-1.154
				c0-0.541-0.134-0.946-0.402-1.217c-0.268-0.271-0.664-0.406-1.188-0.406c-0.501,0-0.887,0.14-1.157,0.419
				s-0.406,0.688-0.406,1.224c0,0.493,0.137,0.871,0.409,1.135S250.401,366.117,250.907,366.117z"/>
			<path style="fill:#3D8BB6;" d="M259.286,362.16c0.862,0,1.502,0.193,1.92,0.58c0.417,0.387,0.626,1.005,0.626,1.854v4.914h-0.798
				l-0.211-1.068h-0.053c-0.202,0.264-0.413,0.484-0.633,0.663c-0.221,0.178-0.475,0.312-0.763,0.402
				c-0.288,0.09-0.641,0.135-1.059,0.135c-0.439,0-0.83-0.077-1.171-0.23c-0.341-0.154-0.608-0.387-0.805-0.699
				c-0.195-0.313-0.293-0.708-0.293-1.188c0-0.721,0.286-1.275,0.857-1.662s1.442-0.598,2.612-0.634l1.246-0.053v-0.441
				c0-0.624-0.134-1.063-0.402-1.313c-0.269-0.251-0.646-0.376-1.135-0.376c-0.378,0-0.738,0.055-1.081,0.165
				c-0.343,0.109-0.669,0.239-0.977,0.389l-0.336-0.831c0.325-0.167,0.699-0.31,1.121-0.429
				C258.376,362.22,258.82,362.16,259.286,362.16z M260.751,365.946l-1.102,0.046c-0.901,0.035-1.537,0.183-1.906,0.442
				c-0.369,0.259-0.555,0.626-0.555,1.101c0,0.414,0.126,0.72,0.376,0.917c0.251,0.198,0.583,0.297,0.996,0.297
				c0.643,0,1.168-0.178,1.577-0.534c0.408-0.356,0.613-0.891,0.613-1.603V365.946z"/>
			<path style="fill:#3D8BB6;" d="M268.187,362.146c0.858,0,1.507,0.21,1.946,0.63s0.659,1.094,0.659,2.021v4.71h-1.081v-4.637
				c0-0.603-0.138-1.054-0.412-1.353c-0.275-0.299-0.696-0.448-1.264-0.448c-0.8,0-1.363,0.227-1.688,0.68
				c-0.325,0.452-0.488,1.11-0.488,1.972v3.786h-1.095v-7.229h0.884l0.165,1.042h0.06c0.153-0.255,0.35-0.469,0.587-0.643
				s0.503-0.306,0.798-0.396C267.552,362.191,267.861,362.146,268.187,362.146z"/>
			<path style="fill:#3D8BB6;" d="M279.003,359.244v3.067c0,0.176-0.004,0.353-0.013,0.531c-0.009,0.178-0.024,0.342-0.047,0.491
				h0.073c0.149-0.255,0.34-0.47,0.57-0.644c0.23-0.173,0.493-0.305,0.788-0.396c0.295-0.09,0.606-0.135,0.937-0.135
				c0.581,0,1.065,0.092,1.455,0.276c0.389,0.186,0.681,0.471,0.877,0.857c0.195,0.388,0.293,0.889,0.293,1.504v4.71h-1.081v-4.637
				c0-0.603-0.138-1.054-0.412-1.353c-0.275-0.299-0.696-0.448-1.264-0.448c-0.536,0-0.964,0.103-1.283,0.307
				c-0.318,0.204-0.547,0.505-0.686,0.9s-0.208,0.88-0.208,1.451v3.779h-1.095v-10.264H279.003z"/>
			<path style="fill:#3D8BB6;" d="M289.651,362.146c0.616,0,1.144,0.137,1.583,0.409c0.44,0.272,0.776,0.654,1.01,1.145
				c0.232,0.49,0.35,1.063,0.35,1.718v0.68h-4.993c0.013,0.849,0.224,1.495,0.633,1.939s0.985,0.666,1.729,0.666
				c0.457,0,0.861-0.042,1.214-0.125c0.352-0.084,0.716-0.207,1.095-0.37v0.964c-0.365,0.162-0.727,0.281-1.085,0.355
				c-0.358,0.075-0.782,0.112-1.271,0.112c-0.694,0-1.3-0.142-1.816-0.426c-0.517-0.283-0.918-0.7-1.204-1.25
				c-0.286-0.549-0.429-1.222-0.429-2.018c0-0.778,0.131-1.452,0.393-2.021c0.262-0.57,0.631-1.009,1.108-1.316
				C288.443,362.301,289.005,362.146,289.651,362.146z M289.639,363.044c-0.585,0-1.051,0.191-1.398,0.573
				c-0.348,0.383-0.554,0.917-0.62,1.604h3.825c-0.004-0.432-0.071-0.811-0.201-1.138c-0.129-0.328-0.326-0.583-0.59-0.766
				S290.052,363.044,289.639,363.044z"/>
			<path style="fill:#3D8BB6;" d="M298.414,362.146c0.145,0,0.297,0.008,0.455,0.023s0.299,0.036,0.422,0.063l-0.139,1.016
				c-0.118-0.03-0.251-0.055-0.396-0.072c-0.146-0.018-0.281-0.026-0.409-0.026c-0.29,0-0.563,0.059-0.821,0.175
				c-0.257,0.116-0.482,0.283-0.676,0.501s-0.346,0.479-0.455,0.785c-0.11,0.306-0.165,0.646-0.165,1.019v3.879h-1.102v-7.229h0.91
				l0.119,1.333h0.046c0.149-0.269,0.33-0.514,0.541-0.735c0.211-0.223,0.456-0.399,0.735-0.531S298.07,362.146,298.414,362.146z"/>
			<path style="fill:#3D8BB6;" d="M304.108,362.146c0.616,0,1.144,0.137,1.583,0.409c0.44,0.272,0.776,0.654,1.01,1.145
				c0.232,0.49,0.35,1.063,0.35,1.718v0.68h-4.993c0.013,0.849,0.224,1.495,0.633,1.939s0.985,0.666,1.729,0.666
				c0.457,0,0.861-0.042,1.214-0.125c0.352-0.084,0.716-0.207,1.095-0.37v0.964c-0.365,0.162-0.727,0.281-1.085,0.355
				c-0.358,0.075-0.782,0.112-1.271,0.112c-0.694,0-1.3-0.142-1.816-0.426c-0.517-0.283-0.918-0.7-1.204-1.25
				c-0.286-0.549-0.429-1.222-0.429-2.018c0-0.778,0.131-1.452,0.393-2.021c0.262-0.57,0.631-1.009,1.108-1.316
				C302.9,362.301,303.462,362.146,304.108,362.146z M304.096,363.044c-0.585,0-1.051,0.191-1.398,0.573
				c-0.348,0.383-0.554,0.917-0.62,1.604h3.825c-0.004-0.432-0.071-0.811-0.201-1.138c-0.129-0.328-0.326-0.583-0.59-0.766
				S304.509,363.044,304.096,363.044z"/>
		</g>
	</g>
</g>
</svg>
